<mxfile host="Electron" agent="Mozilla/5.0 (Windows NT 10.0; Win64; x64) AppleWebKit/537.36 (KHTML, like Gecko) draw.io/26.2.15 Chrome/134.0.6998.205 Electron/35.2.1 Safari/537.36" version="26.2.15">
  <diagram id="o_pLKWx_ShboQT229Ygy" name="Model Cible">
    <mxGraphModel dx="1221" dy="615" grid="1" gridSize="10" guides="1" tooltips="1" connect="1" arrows="1" fold="1" page="1" pageScale="1" pageWidth="827" pageHeight="1169" math="0" shadow="0">
      <root>
        <mxCell id="0" />
        <mxCell id="1" parent="0" />
        <mxCell id="N8NU3V88DJbRs0vllgdv-1" value="" style="rounded=1;whiteSpace=wrap;html=1;arcSize=2;" parent="1" vertex="1">
          <mxGeometry x="508" width="1949.5" height="930" as="geometry" />
        </mxCell>
        <mxCell id="N8NU3V88DJbRs0vllgdv-2" value="" style="rounded=1;whiteSpace=wrap;html=1;dashed=1;dashPattern=8 8;" parent="1" vertex="1">
          <mxGeometry x="1188" y="970" width="1280" height="160" as="geometry" />
        </mxCell>
        <mxCell id="N8NU3V88DJbRs0vllgdv-3" value="&lt;h3&gt;Entête commande fournisseur&lt;/h3&gt;" style="swimlane;fontStyle=0;childLayout=stackLayout;horizontal=1;startSize=70;horizontalStack=0;resizeParent=1;resizeParentMax=0;resizeLast=0;collapsible=1;marginBottom=0;whiteSpace=wrap;html=1;fillColor=#CCFFFF;" parent="1" vertex="1">
          <mxGeometry x="1283" y="55" width="210" height="220" as="geometry">
            <mxRectangle x="-70" y="230" width="210" height="70" as="alternateBounds" />
          </mxGeometry>
        </mxCell>
        <mxCell id="N8NU3V88DJbRs0vllgdv-4" value="ent_sk (PK)" style="text;strokeColor=none;fillColor=none;align=left;verticalAlign=middle;spacingLeft=4;spacingRight=4;overflow=hidden;points=[[0,0.5],[1,0.5]];portConstraint=eastwest;rotatable=0;whiteSpace=wrap;html=1;" parent="N8NU3V88DJbRs0vllgdv-3" vertex="1">
          <mxGeometry y="70" width="210" height="30" as="geometry" />
        </mxCell>
        <mxCell id="N8NU3V88DJbRs0vllgdv-5" value="ent_soc" style="text;strokeColor=none;fillColor=none;align=left;verticalAlign=middle;spacingLeft=4;spacingRight=4;overflow=hidden;points=[[0,0.5],[1,0.5]];portConstraint=eastwest;rotatable=0;whiteSpace=wrap;html=1;" parent="N8NU3V88DJbRs0vllgdv-3" vertex="1">
          <mxGeometry y="100" width="210" height="30" as="geometry" />
        </mxCell>
        <mxCell id="N8NU3V88DJbRs0vllgdv-6" value="ent_dra_sk (FK)" style="text;strokeColor=none;fillColor=none;align=left;verticalAlign=middle;spacingLeft=4;spacingRight=4;overflow=hidden;points=[[0,0.5],[1,0.5]];portConstraint=eastwest;rotatable=0;whiteSpace=wrap;html=1;" parent="N8NU3V88DJbRs0vllgdv-3" vertex="1">
          <mxGeometry y="130" width="210" height="30" as="geometry" />
        </mxCell>
        <mxCell id="N8NU3V88DJbRs0vllgdv-7" value="ent_succ" style="text;strokeColor=none;fillColor=none;align=left;verticalAlign=middle;spacingLeft=4;spacingRight=4;overflow=hidden;points=[[0,0.5],[1,0.5]];portConstraint=eastwest;rotatable=0;whiteSpace=wrap;html=1;" parent="N8NU3V88DJbRs0vllgdv-3" vertex="1">
          <mxGeometry y="160" width="210" height="30" as="geometry" />
        </mxCell>
        <mxCell id="N8NU3V88DJbRs0vllgdv-8" value="ent_agc_sk (FK)" style="text;strokeColor=none;fillColor=none;align=left;verticalAlign=middle;spacingLeft=4;spacingRight=4;overflow=hidden;points=[[0,0.5],[1,0.5]];portConstraint=eastwest;rotatable=0;whiteSpace=wrap;html=1;" parent="N8NU3V88DJbRs0vllgdv-3" vertex="1">
          <mxGeometry y="190" width="210" height="30" as="geometry" />
        </mxCell>
        <mxCell id="N8NU3V88DJbRs0vllgdv-11" value="&lt;h3&gt;Ligne commande fournisseur&lt;/h3&gt;" style="swimlane;fontStyle=0;childLayout=stackLayout;horizontal=1;startSize=70;horizontalStack=0;resizeParent=1;resizeParentMax=0;resizeLast=0;collapsible=1;marginBottom=0;whiteSpace=wrap;html=1;fillColor=#99004D;fontColor=light-dark(#fcfcfc, #ededed);" parent="1" vertex="1">
          <mxGeometry x="1298" y="412.5" width="180" height="220" as="geometry">
            <mxRectangle x="-70" y="230" width="210" height="70" as="alternateBounds" />
          </mxGeometry>
        </mxCell>
        <mxCell id="N8NU3V88DJbRs0vllgdv-12" value="det_sk (PK)" style="text;strokeColor=none;fillColor=none;align=left;verticalAlign=middle;spacingLeft=4;spacingRight=4;overflow=hidden;points=[[0,0.5],[1,0.5]];portConstraint=eastwest;rotatable=0;whiteSpace=wrap;html=1;" parent="N8NU3V88DJbRs0vllgdv-11" vertex="1">
          <mxGeometry y="70" width="180" height="30" as="geometry" />
        </mxCell>
        <mxCell id="N8NU3V88DJbRs0vllgdv-13" value="det_ent_sk (FK)" style="text;strokeColor=none;fillColor=none;align=left;verticalAlign=middle;spacingLeft=4;spacingRight=4;overflow=hidden;points=[[0,0.5],[1,0.5]];portConstraint=eastwest;rotatable=0;whiteSpace=wrap;html=1;" parent="N8NU3V88DJbRs0vllgdv-11" vertex="1">
          <mxGeometry y="100" width="180" height="30" as="geometry" />
        </mxCell>
        <mxCell id="N8NU3V88DJbRs0vllgdv-14" value="société" style="text;strokeColor=none;fillColor=none;align=left;verticalAlign=middle;spacingLeft=4;spacingRight=4;overflow=hidden;points=[[0,0.5],[1,0.5]];portConstraint=eastwest;rotatable=0;whiteSpace=wrap;html=1;" parent="N8NU3V88DJbRs0vllgdv-11" vertex="1">
          <mxGeometry y="130" width="180" height="30" as="geometry" />
        </mxCell>
        <mxCell id="N8NU3V88DJbRs0vllgdv-16" value="det_succ" style="text;strokeColor=none;fillColor=none;align=left;verticalAlign=middle;spacingLeft=4;spacingRight=4;overflow=hidden;points=[[0,0.5],[1,0.5]];portConstraint=eastwest;rotatable=0;whiteSpace=wrap;html=1;" parent="N8NU3V88DJbRs0vllgdv-11" vertex="1">
          <mxGeometry y="160" width="180" height="30" as="geometry" />
        </mxCell>
        <mxCell id="N8NU3V88DJbRs0vllgdv-17" value="det_agc_sk (FK)" style="text;strokeColor=none;fillColor=none;align=left;verticalAlign=middle;spacingLeft=4;spacingRight=4;overflow=hidden;points=[[0,0.5],[1,0.5]];portConstraint=eastwest;rotatable=0;whiteSpace=wrap;html=1;" parent="N8NU3V88DJbRs0vllgdv-11" vertex="1">
          <mxGeometry y="190" width="180" height="30" as="geometry" />
        </mxCell>
        <mxCell id="N8NU3V88DJbRs0vllgdv-18" value="&lt;h3&gt;Ligne Facture Fournisseur&lt;/h3&gt;" style="swimlane;fontStyle=0;childLayout=stackLayout;horizontal=1;startSize=70;horizontalStack=0;resizeParent=1;resizeParentMax=0;resizeLast=0;collapsible=1;marginBottom=0;whiteSpace=wrap;html=1;fillColor=#66FF66;" parent="1" vertex="1">
          <mxGeometry x="2238" y="417.5" width="180" height="250" as="geometry">
            <mxRectangle x="-70" y="230" width="210" height="70" as="alternateBounds" />
          </mxGeometry>
        </mxCell>
        <mxCell id="N8NU3V88DJbRs0vllgdv-19" value="flig_sk" style="text;strokeColor=none;fillColor=none;align=left;verticalAlign=middle;spacingLeft=4;spacingRight=4;overflow=hidden;points=[[0,0.5],[1,0.5]];portConstraint=eastwest;rotatable=0;whiteSpace=wrap;html=1;" parent="N8NU3V88DJbRs0vllgdv-18" vertex="1">
          <mxGeometry y="70" width="180" height="30" as="geometry" />
        </mxCell>
        <mxCell id="N8NU3V88DJbRs0vllgdv-20" value="flig_soc" style="text;strokeColor=none;fillColor=none;align=left;verticalAlign=middle;spacingLeft=4;spacingRight=4;overflow=hidden;points=[[0,0.5],[1,0.5]];portConstraint=eastwest;rotatable=0;whiteSpace=wrap;html=1;" parent="N8NU3V88DJbRs0vllgdv-18" vertex="1">
          <mxGeometry y="100" width="180" height="30" as="geometry" />
        </mxCell>
        <mxCell id="N8NU3V88DJbRs0vllgdv-21" value="flig_soc" style="text;strokeColor=none;fillColor=none;align=left;verticalAlign=middle;spacingLeft=4;spacingRight=4;overflow=hidden;points=[[0,0.5],[1,0.5]];portConstraint=eastwest;rotatable=0;whiteSpace=wrap;html=1;" parent="N8NU3V88DJbRs0vllgdv-18" vertex="1">
          <mxGeometry y="130" width="180" height="30" as="geometry" />
        </mxCell>
        <mxCell id="N8NU3V88DJbRs0vllgdv-22" value="flig_dra_sk" style="text;strokeColor=none;fillColor=none;align=left;verticalAlign=middle;spacingLeft=4;spacingRight=4;overflow=hidden;points=[[0,0.5],[1,0.5]];portConstraint=eastwest;rotatable=0;whiteSpace=wrap;html=1;" parent="N8NU3V88DJbRs0vllgdv-18" vertex="1">
          <mxGeometry y="160" width="180" height="30" as="geometry" />
        </mxCell>
        <mxCell id="N8NU3V88DJbRs0vllgdv-23" value="flig_llf_sk (FK)" style="text;strokeColor=none;fillColor=none;align=left;verticalAlign=middle;spacingLeft=4;spacingRight=4;overflow=hidden;points=[[0,0.5],[1,0.5]];portConstraint=eastwest;rotatable=0;whiteSpace=wrap;html=1;" parent="N8NU3V88DJbRs0vllgdv-18" vertex="1">
          <mxGeometry y="190" width="180" height="30" as="geometry" />
        </mxCell>
        <mxCell id="N8NU3V88DJbRs0vllgdv-24" value="flig_fent_id(PK)" style="text;strokeColor=none;fillColor=none;align=left;verticalAlign=middle;spacingLeft=4;spacingRight=4;overflow=hidden;points=[[0,0.5],[1,0.5]];portConstraint=eastwest;rotatable=0;whiteSpace=wrap;html=1;" parent="N8NU3V88DJbRs0vllgdv-18" vertex="1">
          <mxGeometry y="220" width="180" height="30" as="geometry" />
        </mxCell>
        <mxCell id="N8NU3V88DJbRs0vllgdv-25" value="&lt;h3&gt;Ligne Livraison Fournisseur&lt;/h3&gt;" style="swimlane;fontStyle=0;childLayout=stackLayout;horizontal=1;startSize=70;horizontalStack=0;resizeParent=1;resizeParentMax=0;resizeLast=0;collapsible=1;marginBottom=0;whiteSpace=wrap;html=1;fillColor=#B5739D;" parent="1" vertex="1">
          <mxGeometry x="1758" y="427" width="180" height="130" as="geometry">
            <mxRectangle x="-70" y="230" width="210" height="70" as="alternateBounds" />
          </mxGeometry>
        </mxCell>
        <mxCell id="N8NU3V88DJbRs0vllgdv-30" value="identifiant ligne livraison" style="text;strokeColor=none;fillColor=none;align=left;verticalAlign=middle;spacingLeft=4;spacingRight=4;overflow=hidden;points=[[0,0.5],[1,0.5]];portConstraint=eastwest;rotatable=0;whiteSpace=wrap;html=1;" parent="N8NU3V88DJbRs0vllgdv-25" vertex="1">
          <mxGeometry y="70" width="180" height="30" as="geometry" />
        </mxCell>
        <mxCell id="N8NU3V88DJbRs0vllgdv-31" value="quantité livrée" style="text;strokeColor=none;fillColor=none;align=left;verticalAlign=middle;spacingLeft=4;spacingRight=4;overflow=hidden;points=[[0,0.5],[1,0.5]];portConstraint=eastwest;rotatable=0;whiteSpace=wrap;html=1;" parent="N8NU3V88DJbRs0vllgdv-25" vertex="1">
          <mxGeometry y="100" width="180" height="30" as="geometry" />
        </mxCell>
        <mxCell id="N8NU3V88DJbRs0vllgdv-32" value="&lt;h3&gt;Entete Livraison Fournisseur&lt;/h3&gt;" style="swimlane;fontStyle=0;childLayout=stackLayout;horizontal=1;startSize=70;horizontalStack=0;resizeParent=1;resizeParentMax=0;resizeLast=0;collapsible=1;marginBottom=0;whiteSpace=wrap;html=1;fillColor=#3333FF;fontColor=#FFFFFF;" parent="1" vertex="1">
          <mxGeometry x="1758" y="122" width="180" height="160" as="geometry">
            <mxRectangle x="-70" y="230" width="210" height="70" as="alternateBounds" />
          </mxGeometry>
        </mxCell>
        <mxCell id="N8NU3V88DJbRs0vllgdv-33" value="code_sk (PK)" style="text;strokeColor=none;fillColor=none;align=left;verticalAlign=middle;spacingLeft=4;spacingRight=4;overflow=hidden;points=[[0,0.5],[1,0.5]];portConstraint=eastwest;rotatable=0;whiteSpace=wrap;html=1;" parent="N8NU3V88DJbRs0vllgdv-32" vertex="1">
          <mxGeometry y="70" width="180" height="30" as="geometry" />
        </mxCell>
        <mxCell id="N8NU3V88DJbRs0vllgdv-34" value="code_soc" style="text;strokeColor=none;fillColor=none;align=left;verticalAlign=middle;spacingLeft=4;spacingRight=4;overflow=hidden;points=[[0,0.5],[1,0.5]];portConstraint=eastwest;rotatable=0;whiteSpace=wrap;html=1;" parent="N8NU3V88DJbRs0vllgdv-32" vertex="1">
          <mxGeometry y="100" width="180" height="30" as="geometry" />
        </mxCell>
        <mxCell id="N8NU3V88DJbRs0vllgdv-35" value="code_dra_sk" style="text;strokeColor=none;fillColor=none;align=left;verticalAlign=middle;spacingLeft=4;spacingRight=4;overflow=hidden;points=[[0,0.5],[1,0.5]];portConstraint=eastwest;rotatable=0;whiteSpace=wrap;html=1;" parent="N8NU3V88DJbRs0vllgdv-32" vertex="1">
          <mxGeometry y="130" width="180" height="30" as="geometry" />
        </mxCell>
        <mxCell id="N8NU3V88DJbRs0vllgdv-36" value="&lt;h3&gt;Entete Facture Fournisseur&lt;/h3&gt;" style="swimlane;fontStyle=0;childLayout=stackLayout;horizontal=1;startSize=70;horizontalStack=0;resizeParent=1;resizeParentMax=0;resizeLast=0;collapsible=1;marginBottom=0;whiteSpace=wrap;html=1;fillColor=#A9C4EB;" parent="1" vertex="1">
          <mxGeometry x="2238" y="152" width="180" height="100" as="geometry">
            <mxRectangle x="-70" y="230" width="210" height="70" as="alternateBounds" />
          </mxGeometry>
        </mxCell>
        <mxCell id="N8NU3V88DJbRs0vllgdv-37" value="fent_sk" style="text;strokeColor=none;fillColor=none;align=left;verticalAlign=middle;spacingLeft=4;spacingRight=4;overflow=hidden;points=[[0,0.5],[1,0.5]];portConstraint=eastwest;rotatable=0;whiteSpace=wrap;html=1;" parent="N8NU3V88DJbRs0vllgdv-36" vertex="1">
          <mxGeometry y="70" width="180" height="30" as="geometry" />
        </mxCell>
        <mxCell id="N8NU3V88DJbRs0vllgdv-38" value="&lt;h3&gt;Lignes CDE Client&lt;/h3&gt;" style="swimlane;fontStyle=0;childLayout=stackLayout;horizontal=1;startSize=70;horizontalStack=0;resizeParent=1;resizeParentMax=0;resizeLast=0;collapsible=1;marginBottom=0;whiteSpace=wrap;html=1;fillColor=#00FFFF;dashed=1;dashPattern=8 8;" parent="1" vertex="1">
          <mxGeometry x="1568" y="990" width="180" height="100" as="geometry">
            <mxRectangle x="-70" y="230" width="210" height="70" as="alternateBounds" />
          </mxGeometry>
        </mxCell>
        <mxCell id="N8NU3V88DJbRs0vllgdv-92" value="&lt;font style=&quot;font-size: 18px;&quot;&gt;&lt;b&gt;COMMANDE FOURNISSEUR&lt;/b&gt;&lt;/font&gt;" style="text;html=1;align=center;verticalAlign=middle;whiteSpace=wrap;rounded=0;" parent="1" vertex="1">
          <mxGeometry x="2159" y="15" width="259" height="40" as="geometry" />
        </mxCell>
        <mxCell id="IpE3aq3yS-FKB1r85jJl-1" value="est constiuée de" style="swimlane;fontStyle=0;childLayout=stackLayout;horizontal=1;startSize=30;horizontalStack=0;resizeParent=1;resizeParentMax=0;resizeLast=0;collapsible=1;marginBottom=0;whiteSpace=wrap;html=1;rounded=1;arcSize=27;" parent="1" vertex="1">
          <mxGeometry x="1318" y="305" width="140" height="60" as="geometry" />
        </mxCell>
        <mxCell id="IpE3aq3yS-FKB1r85jJl-8" value="0,N" style="endArrow=none;endSize=16;endFill=0;html=1;rounded=1;exitX=0.5;exitY=0;exitDx=0;exitDy=0;entryX=0.506;entryY=0.98;entryDx=0;entryDy=0;startFill=0;entryPerimeter=0;" parent="1" source="IpE3aq3yS-FKB1r85jJl-1" target="N8NU3V88DJbRs0vllgdv-8" edge="1">
          <mxGeometry x="-0.0074" width="160" relative="1" as="geometry">
            <mxPoint x="1098" y="580" as="sourcePoint" />
            <mxPoint x="1168" y="525" as="targetPoint" />
            <mxPoint as="offset" />
          </mxGeometry>
        </mxCell>
        <mxCell id="IpE3aq3yS-FKB1r85jJl-9" value="1,1" style="endArrow=none;endSize=16;endFill=0;html=1;rounded=1;exitX=0.5;exitY=0;exitDx=0;exitDy=0;entryX=0.5;entryY=1;entryDx=0;entryDy=0;startFill=0;" parent="1" source="N8NU3V88DJbRs0vllgdv-11" target="IpE3aq3yS-FKB1r85jJl-1" edge="1">
          <mxGeometry x="0.0175" width="160" relative="1" as="geometry">
            <mxPoint x="1214" y="500" as="sourcePoint" />
            <mxPoint x="1144" y="395" as="targetPoint" />
            <mxPoint as="offset" />
          </mxGeometry>
        </mxCell>
        <mxCell id="IpE3aq3yS-FKB1r85jJl-10" value="est alloué sur" style="swimlane;fontStyle=0;childLayout=stackLayout;horizontal=1;startSize=30;horizontalStack=0;resizeParent=1;resizeParentMax=0;resizeLast=0;collapsible=1;marginBottom=0;whiteSpace=wrap;html=1;rounded=1;arcSize=27;fillColor=#FFEE00;strokeColor=#d6b656;" parent="1" vertex="1">
          <mxGeometry x="1318" y="712.5" width="140" height="90" as="geometry" />
        </mxCell>
        <mxCell id="XQ4oMTBl5C2TUxFu6wBk-1" value="date allocation" style="text;strokeColor=none;fillColor=none;align=left;verticalAlign=middle;spacingLeft=4;spacingRight=4;overflow=hidden;points=[[0,0.5],[1,0.5]];portConstraint=eastwest;rotatable=0;whiteSpace=wrap;html=1;" parent="IpE3aq3yS-FKB1r85jJl-10" vertex="1">
          <mxGeometry y="30" width="140" height="30" as="geometry" />
        </mxCell>
        <mxCell id="IpE3aq3yS-FKB1r85jJl-13" value="quantité allouée" style="text;strokeColor=none;fillColor=none;align=left;verticalAlign=middle;spacingLeft=4;spacingRight=4;overflow=hidden;points=[[0,0.5],[1,0.5]];portConstraint=eastwest;rotatable=0;whiteSpace=wrap;html=1;" parent="IpE3aq3yS-FKB1r85jJl-10" vertex="1">
          <mxGeometry y="60" width="140" height="30" as="geometry" />
        </mxCell>
        <mxCell id="IpE3aq3yS-FKB1r85jJl-11" value="0,N" style="endArrow=none;endSize=16;endFill=0;html=1;rounded=1;exitX=1;exitY=0.5;exitDx=0;exitDy=0;entryX=0;entryY=0;entryDx=0;entryDy=0;startFill=0;" parent="1" source="IpE3aq3yS-FKB1r85jJl-13" target="N8NU3V88DJbRs0vllgdv-38" edge="1">
          <mxGeometry width="160" relative="1" as="geometry">
            <mxPoint x="1388" y="620" as="sourcePoint" />
            <mxPoint x="1318" y="515" as="targetPoint" />
          </mxGeometry>
        </mxCell>
        <mxCell id="IpE3aq3yS-FKB1r85jJl-12" value="0,N" style="endArrow=none;endSize=16;endFill=0;html=1;rounded=1;exitX=0.463;exitY=1.114;exitDx=0;exitDy=0;entryX=0.5;entryY=0;entryDx=0;entryDy=0;startFill=0;exitPerimeter=0;" parent="1" source="N8NU3V88DJbRs0vllgdv-17" target="IpE3aq3yS-FKB1r85jJl-10" edge="1">
          <mxGeometry width="160" relative="1" as="geometry">
            <mxPoint x="1588" y="518" as="sourcePoint" />
            <mxPoint x="1434" y="435" as="targetPoint" />
          </mxGeometry>
        </mxCell>
        <mxCell id="IpE3aq3yS-FKB1r85jJl-18" value="livre la CF" style="swimlane;fontStyle=0;childLayout=stackLayout;horizontal=1;startSize=30;horizontalStack=0;resizeParent=1;resizeParentMax=0;resizeLast=0;collapsible=1;marginBottom=0;whiteSpace=wrap;html=1;rounded=1;arcSize=27;fillColor=#fff2cc;strokeColor=#d6b656;" parent="1" vertex="1">
          <mxGeometry x="1538" y="430" width="140" height="90" as="geometry" />
        </mxCell>
        <mxCell id="IpE3aq3yS-FKB1r85jJl-19" value="date rapprochement" style="text;strokeColor=none;fillColor=none;align=left;verticalAlign=middle;spacingLeft=4;spacingRight=4;overflow=hidden;points=[[0,0.5],[1,0.5]];portConstraint=eastwest;rotatable=0;whiteSpace=wrap;html=1;" parent="IpE3aq3yS-FKB1r85jJl-18" vertex="1">
          <mxGeometry y="30" width="140" height="30" as="geometry" />
        </mxCell>
        <mxCell id="IpE3aq3yS-FKB1r85jJl-20" value="quantité rapprochée" style="text;strokeColor=none;fillColor=none;align=left;verticalAlign=middle;spacingLeft=4;spacingRight=4;overflow=hidden;points=[[0,0.5],[1,0.5]];portConstraint=eastwest;rotatable=0;whiteSpace=wrap;html=1;" parent="IpE3aq3yS-FKB1r85jJl-18" vertex="1">
          <mxGeometry y="60" width="140" height="30" as="geometry" />
        </mxCell>
        <mxCell id="IpE3aq3yS-FKB1r85jJl-21" value="0,N" style="endArrow=none;endSize=16;endFill=0;html=1;rounded=1;exitX=1;exitY=0.25;exitDx=0;exitDy=0;entryX=0.01;entryY=0.102;entryDx=0;entryDy=0;startFill=0;entryPerimeter=0;" parent="1" source="IpE3aq3yS-FKB1r85jJl-18" target="N8NU3V88DJbRs0vllgdv-25" edge="1">
          <mxGeometry width="160" relative="1" as="geometry">
            <mxPoint x="1747" y="259.5" as="sourcePoint" />
            <mxPoint x="1927" y="734.5" as="targetPoint" />
          </mxGeometry>
        </mxCell>
        <mxCell id="IpE3aq3yS-FKB1r85jJl-22" value="0,N" style="endArrow=none;endSize=16;endFill=0;html=1;rounded=1;exitX=1.008;exitY=0.154;exitDx=0;exitDy=0;entryX=0;entryY=0.25;entryDx=0;entryDy=0;startFill=0;exitPerimeter=0;" parent="1" source="N8NU3V88DJbRs0vllgdv-11" target="IpE3aq3yS-FKB1r85jJl-18" edge="1">
          <mxGeometry width="160" relative="1" as="geometry">
            <mxPoint x="1740" y="315.5" as="sourcePoint" />
            <mxPoint x="1793" y="74.5" as="targetPoint" />
          </mxGeometry>
        </mxCell>
        <mxCell id="IpE3aq3yS-FKB1r85jJl-23" value="est constiuée de" style="swimlane;fontStyle=0;childLayout=stackLayout;horizontal=1;startSize=30;horizontalStack=0;resizeParent=1;resizeParentMax=0;resizeLast=0;collapsible=1;marginBottom=0;whiteSpace=wrap;html=1;rounded=1;arcSize=27;" parent="1" vertex="1">
          <mxGeometry x="1778" y="322" width="140" height="60" as="geometry" />
        </mxCell>
        <mxCell id="IpE3aq3yS-FKB1r85jJl-24" value="0,N" style="endArrow=none;endSize=16;endFill=0;html=1;rounded=1;exitX=0.5;exitY=0;exitDx=0;exitDy=0;startFill=0;" parent="1" source="IpE3aq3yS-FKB1r85jJl-23" target="N8NU3V88DJbRs0vllgdv-32" edge="1">
          <mxGeometry width="160" relative="1" as="geometry">
            <mxPoint x="1816" y="477" as="sourcePoint" />
            <mxPoint x="1746" y="367" as="targetPoint" />
          </mxGeometry>
        </mxCell>
        <mxCell id="IpE3aq3yS-FKB1r85jJl-25" value="1,1" style="endArrow=none;endSize=16;endFill=0;html=1;rounded=1;exitX=0.5;exitY=0;exitDx=0;exitDy=0;entryX=0.5;entryY=1;entryDx=0;entryDy=0;startFill=0;" parent="1" source="N8NU3V88DJbRs0vllgdv-25" target="IpE3aq3yS-FKB1r85jJl-23" edge="1">
          <mxGeometry width="160" relative="1" as="geometry">
            <mxPoint x="2008" y="375" as="sourcePoint" />
            <mxPoint x="1854" y="292" as="targetPoint" />
          </mxGeometry>
        </mxCell>
        <mxCell id="IpE3aq3yS-FKB1r85jJl-26" value="livre la commande client" style="swimlane;fontStyle=0;childLayout=stackLayout;horizontal=1;startSize=30;horizontalStack=0;resizeParent=1;resizeParentMax=0;resizeLast=0;collapsible=1;marginBottom=0;whiteSpace=wrap;html=1;rounded=1;arcSize=43;fillColor=#fff2cc;strokeColor=#d6b656;" parent="1" vertex="1">
          <mxGeometry x="1748" y="725" width="140" height="90" as="geometry" />
        </mxCell>
        <mxCell id="IpE3aq3yS-FKB1r85jJl-27" value="date livraison" style="text;strokeColor=none;fillColor=none;align=left;verticalAlign=middle;spacingLeft=4;spacingRight=4;overflow=hidden;points=[[0,0.5],[1,0.5]];portConstraint=eastwest;rotatable=0;whiteSpace=wrap;html=1;" parent="IpE3aq3yS-FKB1r85jJl-26" vertex="1">
          <mxGeometry y="30" width="140" height="30" as="geometry" />
        </mxCell>
        <mxCell id="IpE3aq3yS-FKB1r85jJl-28" value="quantité livrée" style="text;strokeColor=none;fillColor=none;align=left;verticalAlign=middle;spacingLeft=4;spacingRight=4;overflow=hidden;points=[[0,0.5],[1,0.5]];portConstraint=eastwest;rotatable=0;whiteSpace=wrap;html=1;" parent="IpE3aq3yS-FKB1r85jJl-26" vertex="1">
          <mxGeometry y="60" width="140" height="30" as="geometry" />
        </mxCell>
        <mxCell id="IpE3aq3yS-FKB1r85jJl-29" value="0,N" style="endArrow=none;endSize=16;endFill=0;html=1;rounded=1;exitX=0.462;exitY=0.933;exitDx=0;exitDy=0;entryX=1;entryY=0;entryDx=0;entryDy=0;startFill=0;exitPerimeter=0;" parent="1" source="IpE3aq3yS-FKB1r85jJl-28" target="N8NU3V88DJbRs0vllgdv-38" edge="1">
          <mxGeometry width="160" relative="1" as="geometry">
            <mxPoint x="1758" y="616.5" as="sourcePoint" />
            <mxPoint x="1938" y="1091.5" as="targetPoint" />
          </mxGeometry>
        </mxCell>
        <mxCell id="IpE3aq3yS-FKB1r85jJl-30" value="0,N" style="endArrow=none;endSize=16;endFill=0;html=1;rounded=1;exitX=0.455;exitY=0.988;exitDx=0;exitDy=0;entryX=0.5;entryY=0;entryDx=0;entryDy=0;startFill=0;exitPerimeter=0;" parent="1" source="N8NU3V88DJbRs0vllgdv-31" target="IpE3aq3yS-FKB1r85jJl-26" edge="1">
          <mxGeometry width="160" relative="1" as="geometry">
            <mxPoint x="1751" y="672.5" as="sourcePoint" />
            <mxPoint x="1804" y="431.5" as="targetPoint" />
          </mxGeometry>
        </mxCell>
        <mxCell id="IpE3aq3yS-FKB1r85jJl-31" value="facture la ligne livrée" style="swimlane;fontStyle=0;childLayout=stackLayout;horizontal=1;startSize=30;horizontalStack=0;resizeParent=1;resizeParentMax=0;resizeLast=0;collapsible=1;marginBottom=0;whiteSpace=wrap;html=1;rounded=1;arcSize=27;fillColor=#fff2cc;strokeColor=#d6b656;" parent="1" vertex="1">
          <mxGeometry x="2017" y="441" width="140" height="60" as="geometry" />
        </mxCell>
        <mxCell id="IpE3aq3yS-FKB1r85jJl-33" value="quantité facturée" style="text;strokeColor=none;fillColor=none;align=left;verticalAlign=middle;spacingLeft=4;spacingRight=4;overflow=hidden;points=[[0,0.5],[1,0.5]];portConstraint=eastwest;rotatable=0;whiteSpace=wrap;html=1;" parent="IpE3aq3yS-FKB1r85jJl-31" vertex="1">
          <mxGeometry y="30" width="140" height="30" as="geometry" />
        </mxCell>
        <mxCell id="IpE3aq3yS-FKB1r85jJl-34" value="0,N" style="endArrow=none;endSize=16;endFill=0;html=1;rounded=1;exitX=1;exitY=0.25;exitDx=0;exitDy=0;entryX=0.004;entryY=0.156;entryDx=0;entryDy=0;startFill=0;entryPerimeter=0;" parent="1" source="IpE3aq3yS-FKB1r85jJl-31" target="N8NU3V88DJbRs0vllgdv-18" edge="1">
          <mxGeometry width="160" relative="1" as="geometry">
            <mxPoint x="2226" y="264.5" as="sourcePoint" />
            <mxPoint x="2239" y="458" as="targetPoint" />
          </mxGeometry>
        </mxCell>
        <mxCell id="IpE3aq3yS-FKB1r85jJl-35" value="0,N" style="endArrow=none;endSize=16;endFill=0;html=1;rounded=1;exitX=1.002;exitY=0.117;exitDx=0;exitDy=0;entryX=0;entryY=0.25;entryDx=0;entryDy=0;startFill=0;exitPerimeter=0;" parent="1" source="N8NU3V88DJbRs0vllgdv-25" target="IpE3aq3yS-FKB1r85jJl-31" edge="1">
          <mxGeometry width="160" relative="1" as="geometry">
            <mxPoint x="1958" y="458" as="sourcePoint" />
            <mxPoint x="2272" y="79.5" as="targetPoint" />
          </mxGeometry>
        </mxCell>
        <mxCell id="IpE3aq3yS-FKB1r85jJl-37" value="est constiuée de" style="swimlane;fontStyle=0;childLayout=stackLayout;horizontal=1;startSize=30;horizontalStack=0;resizeParent=1;resizeParentMax=0;resizeLast=0;collapsible=1;marginBottom=0;whiteSpace=wrap;html=1;rounded=1;arcSize=27;" parent="1" vertex="1">
          <mxGeometry x="2258" y="312.5" width="140" height="60" as="geometry" />
        </mxCell>
        <mxCell id="IpE3aq3yS-FKB1r85jJl-38" value="0,N" style="endArrow=none;endSize=16;endFill=0;html=1;rounded=1;exitX=0.5;exitY=0;exitDx=0;exitDy=0;startFill=0;entryX=0.503;entryY=0.993;entryDx=0;entryDy=0;entryPerimeter=0;" parent="1" source="IpE3aq3yS-FKB1r85jJl-37" target="N8NU3V88DJbRs0vllgdv-37" edge="1">
          <mxGeometry width="160" relative="1" as="geometry">
            <mxPoint x="2296" y="467.5" as="sourcePoint" />
            <mxPoint x="2328" y="272.5" as="targetPoint" />
          </mxGeometry>
        </mxCell>
        <mxCell id="IpE3aq3yS-FKB1r85jJl-39" value="1,1" style="endArrow=none;endSize=16;endFill=0;html=1;rounded=1;exitX=0.5;exitY=0;exitDx=0;exitDy=0;entryX=0.5;entryY=1;entryDx=0;entryDy=0;startFill=0;" parent="1" source="N8NU3V88DJbRs0vllgdv-18" target="IpE3aq3yS-FKB1r85jJl-37" edge="1">
          <mxGeometry width="160" relative="1" as="geometry">
            <mxPoint x="2328" y="417.5" as="sourcePoint" />
            <mxPoint x="2334" y="282.5" as="targetPoint" />
          </mxGeometry>
        </mxCell>
        <mxCell id="IpE3aq3yS-FKB1r85jJl-41" value="&lt;font style=&quot;font-size: 18px;&quot;&gt;&lt;b&gt;GESTION COMMERCIALE&lt;/b&gt;&lt;/font&gt;" style="text;html=1;align=center;verticalAlign=middle;whiteSpace=wrap;rounded=0;" parent="1" vertex="1">
          <mxGeometry x="2098" y="980" width="379" height="40" as="geometry" />
        </mxCell>
        <mxCell id="kqXYt_041k4YZbVuR8Cr-1" value="&lt;h3&gt;Fournisseur&lt;/h3&gt;" style="swimlane;fontStyle=0;childLayout=stackLayout;horizontal=1;startSize=70;horizontalStack=0;resizeParent=1;resizeParentMax=0;resizeLast=0;collapsible=1;marginBottom=0;whiteSpace=wrap;html=1;fillColor=#CCFFFF;" parent="1" vertex="1">
          <mxGeometry x="768" y="86" width="210" height="100" as="geometry">
            <mxRectangle x="-70" y="230" width="210" height="70" as="alternateBounds" />
          </mxGeometry>
        </mxCell>
        <mxCell id="kqXYt_041k4YZbVuR8Cr-2" value="Identifiant fournisseur" style="text;strokeColor=none;fillColor=none;align=left;verticalAlign=middle;spacingLeft=4;spacingRight=4;overflow=hidden;points=[[0,0.5],[1,0.5]];portConstraint=eastwest;rotatable=0;whiteSpace=wrap;html=1;" parent="kqXYt_041k4YZbVuR8Cr-1" vertex="1">
          <mxGeometry y="70" width="210" height="30" as="geometry" />
        </mxCell>
        <mxCell id="kqXYt_041k4YZbVuR8Cr-7" value="fournis" style="swimlane;fontStyle=0;childLayout=stackLayout;horizontal=1;startSize=30;horizontalStack=0;resizeParent=1;resizeParentMax=0;resizeLast=0;collapsible=1;marginBottom=0;whiteSpace=wrap;html=1;rounded=1;arcSize=27;" parent="1" vertex="1">
          <mxGeometry x="1058" y="96" width="140" height="60" as="geometry" />
        </mxCell>
        <mxCell id="kqXYt_041k4YZbVuR8Cr-8" value="0,N" style="endArrow=none;endSize=16;endFill=0;html=1;rounded=1;exitX=1;exitY=0.25;exitDx=0;exitDy=0;entryX=0;entryY=0.25;entryDx=0;entryDy=0;startFill=0;" parent="1" source="kqXYt_041k4YZbVuR8Cr-1" target="kqXYt_041k4YZbVuR8Cr-7" edge="1">
          <mxGeometry x="0.0175" width="160" relative="1" as="geometry">
            <mxPoint x="1398" y="423" as="sourcePoint" />
            <mxPoint x="1398" y="375" as="targetPoint" />
            <mxPoint as="offset" />
          </mxGeometry>
        </mxCell>
        <mxCell id="kqXYt_041k4YZbVuR8Cr-9" value="1,1" style="endArrow=none;endSize=16;endFill=0;html=1;rounded=1;exitX=1;exitY=0.25;exitDx=0;exitDy=0;entryX=0;entryY=0.25;entryDx=0;entryDy=0;startFill=0;" parent="1" source="kqXYt_041k4YZbVuR8Cr-7" target="N8NU3V88DJbRs0vllgdv-3" edge="1">
          <mxGeometry x="-0.0118" width="160" relative="1" as="geometry">
            <mxPoint x="1398" y="315" as="sourcePoint" />
            <mxPoint x="1399" y="284" as="targetPoint" />
            <mxPoint as="offset" />
          </mxGeometry>
        </mxCell>
        <mxCell id="kqXYt_041k4YZbVuR8Cr-10" value="" style="rounded=1;whiteSpace=wrap;html=1;dashed=1;dashPattern=8 8;" parent="1" vertex="1">
          <mxGeometry x="38" y="15" width="410" height="1120" as="geometry" />
        </mxCell>
        <mxCell id="kqXYt_041k4YZbVuR8Cr-11" value="&lt;font style=&quot;font-size: 18px;&quot;&gt;&lt;b&gt;Référentiel&lt;/b&gt;&lt;/font&gt;" style="text;html=1;align=center;verticalAlign=middle;whiteSpace=wrap;rounded=0;" parent="1" vertex="1">
          <mxGeometry x="78" y="25" width="379" height="40" as="geometry" />
        </mxCell>
        <mxCell id="kqXYt_041k4YZbVuR8Cr-12" value="&lt;h3&gt;Tiers&lt;/h3&gt;" style="swimlane;fontStyle=0;childLayout=stackLayout;horizontal=1;startSize=70;horizontalStack=0;resizeParent=1;resizeParentMax=0;resizeLast=0;collapsible=1;marginBottom=0;whiteSpace=wrap;html=1;fillColor=#00FFFF;dashed=1;dashPattern=8 8;" parent="1" vertex="1">
          <mxGeometry x="168" y="85" width="180" height="100" as="geometry">
            <mxRectangle x="-70" y="230" width="210" height="70" as="alternateBounds" />
          </mxGeometry>
        </mxCell>
        <mxCell id="kqXYt_041k4YZbVuR8Cr-13" value="est un" style="swimlane;fontStyle=0;childLayout=stackLayout;horizontal=1;startSize=30;horizontalStack=0;resizeParent=1;resizeParentMax=0;resizeLast=0;collapsible=1;marginBottom=0;whiteSpace=wrap;html=1;rounded=1;arcSize=27;" parent="1" vertex="1">
          <mxGeometry x="528" y="95" width="140" height="60" as="geometry" />
        </mxCell>
        <mxCell id="kqXYt_041k4YZbVuR8Cr-14" value="0,N" style="endArrow=none;endSize=16;endFill=0;html=1;rounded=1;exitX=1;exitY=0.25;exitDx=0;exitDy=0;entryX=0;entryY=0.25;entryDx=0;entryDy=0;startFill=0;" parent="1" source="kqXYt_041k4YZbVuR8Cr-12" target="kqXYt_041k4YZbVuR8Cr-13" edge="1">
          <mxGeometry x="0.0175" width="160" relative="1" as="geometry">
            <mxPoint x="318" y="320" as="sourcePoint" />
            <mxPoint x="398" y="320" as="targetPoint" />
            <mxPoint as="offset" />
          </mxGeometry>
        </mxCell>
        <mxCell id="kqXYt_041k4YZbVuR8Cr-15" value="1,1" style="endArrow=none;endSize=16;endFill=0;html=1;rounded=1;exitX=1;exitY=0.25;exitDx=0;exitDy=0;entryX=0;entryY=0.25;entryDx=0;entryDy=0;startFill=0;" parent="1" source="kqXYt_041k4YZbVuR8Cr-13" target="kqXYt_041k4YZbVuR8Cr-1" edge="1">
          <mxGeometry x="-0.0074" width="160" relative="1" as="geometry">
            <mxPoint x="868" y="320" as="sourcePoint" />
            <mxPoint x="753" y="115" as="targetPoint" />
            <mxPoint as="offset" />
          </mxGeometry>
        </mxCell>
        <mxCell id="WyhUoAt6byTtzYtRF35N-1" value="&lt;h3&gt;Catégorie Fournisseur&lt;/h3&gt;" style="swimlane;fontStyle=0;childLayout=stackLayout;horizontal=1;startSize=70;horizontalStack=0;resizeParent=1;resizeParentMax=0;resizeLast=0;collapsible=1;marginBottom=0;whiteSpace=wrap;html=1;fillColor=#CCFFFF;" parent="1" vertex="1">
          <mxGeometry x="763" y="352.5" width="210" height="100" as="geometry">
            <mxRectangle x="-70" y="230" width="210" height="70" as="alternateBounds" />
          </mxGeometry>
        </mxCell>
        <mxCell id="WyhUoAt6byTtzYtRF35N-2" value="Identifiant catégorie fournisseur" style="text;strokeColor=none;fillColor=none;align=left;verticalAlign=middle;spacingLeft=4;spacingRight=4;overflow=hidden;points=[[0,0.5],[1,0.5]];portConstraint=eastwest;rotatable=0;whiteSpace=wrap;html=1;" parent="WyhUoAt6byTtzYtRF35N-1" vertex="1">
          <mxGeometry y="70" width="210" height="30" as="geometry" />
        </mxCell>
        <mxCell id="WyhUoAt6byTtzYtRF35N-3" value="est de la" style="swimlane;fontStyle=0;childLayout=stackLayout;horizontal=1;startSize=30;horizontalStack=0;resizeParent=1;resizeParentMax=0;resizeLast=0;collapsible=1;marginBottom=0;whiteSpace=wrap;html=1;rounded=1;arcSize=27;" parent="1" vertex="1">
          <mxGeometry x="803" y="245" width="140" height="60" as="geometry" />
        </mxCell>
        <mxCell id="WyhUoAt6byTtzYtRF35N-4" value="1,1" style="endArrow=none;endSize=16;endFill=0;html=1;rounded=1;exitX=0.527;exitY=1.071;exitDx=0;exitDy=0;entryX=0.5;entryY=0;entryDx=0;entryDy=0;startFill=0;exitPerimeter=0;" parent="1" source="kqXYt_041k4YZbVuR8Cr-2" target="WyhUoAt6byTtzYtRF35N-3" edge="1">
          <mxGeometry x="0.0175" width="160" relative="1" as="geometry">
            <mxPoint x="988" y="121" as="sourcePoint" />
            <mxPoint x="1068" y="121" as="targetPoint" />
            <mxPoint as="offset" />
          </mxGeometry>
        </mxCell>
        <mxCell id="WyhUoAt6byTtzYtRF35N-5" value="0,N" style="endArrow=none;endSize=16;endFill=0;html=1;rounded=1;exitX=0.5;exitY=1;exitDx=0;exitDy=0;entryX=0.5;entryY=0;entryDx=0;entryDy=0;startFill=0;" parent="1" source="WyhUoAt6byTtzYtRF35N-3" target="WyhUoAt6byTtzYtRF35N-1" edge="1">
          <mxGeometry x="-0.0074" width="160" relative="1" as="geometry">
            <mxPoint x="1208" y="121" as="sourcePoint" />
            <mxPoint x="1293" y="120" as="targetPoint" />
            <mxPoint as="offset" />
          </mxGeometry>
        </mxCell>
      </root>
    </mxGraphModel>
  </diagram>
</mxfile>
